<svg width="1201" height="656" viewBox="0 0 1201 656" fill="none" xmlns="http://www.w3.org/2000/svg">
<g clip-path="url(#clip0_214_32)">
<path d="M1200.2 566.65C1200.2 600.098 1180.42 616.699 1140.38 616.699H898.153C906.118 605.215 910.472 591.627 911.53 576.66H1146.48C1156.01 576.66 1159.91 573.242 1159.91 564.453C1159.91 482.422 1069.09 407.715 963.135 407.715C923.122 407.715 885.234 418.368 853.592 436.069C844.913 425.972 834.981 416.348 823.988 407.333C862.575 382.879 910.449 367.92 963.135 367.92C1097.17 367.92 1200.2 465.088 1200.2 566.65ZM1079.59 202.393C1079.59 273.682 1027.83 330.566 963.379 330.566C899.17 330.566 847.168 273.926 847.168 202.881C847.168 134.521 899.658 77.6367 963.379 77.6367C1027.83 77.6367 1079.59 133.545 1079.59 202.393ZM887.451 202.881C887.451 251.709 921.875 290.283 963.379 290.283C1005.13 290.283 1039.55 251.709 1039.55 202.393C1039.55 155.518 1005.62 117.92 963.379 117.92C921.875 117.92 887.451 156.25 887.451 202.881Z" fill="#007AFF"/>
<path d="M376.207 407.333C365.229 416.335 355.31 425.945 346.641 436.027C315.019 418.352 277.135 407.715 237.061 407.715C131.104 407.715 40.2832 482.422 40.2832 564.453C40.2832 573.242 44.1895 576.66 53.7109 576.66H288.666C289.724 591.627 294.077 605.215 302.042 616.699H59.8145C20.0195 616.699 0 600.098 0 566.65C0 465.088 103.027 367.92 237.061 367.92C289.746 367.92 337.62 382.879 376.207 407.333ZM353.76 202.393C353.76 273.682 301.758 330.566 237.549 330.566C173.34 330.566 121.338 273.926 121.338 202.881C121.338 134.521 173.584 77.6367 237.549 77.6367C301.758 77.6367 353.76 133.545 353.76 202.393ZM161.621 202.881C161.621 251.709 195.801 290.283 237.549 290.283C279.297 290.283 313.721 251.709 313.721 202.393C313.721 155.518 279.541 117.92 237.549 117.92C195.801 117.92 161.621 156.25 161.621 202.881Z" fill="#007AFF"/>
<path d="M600.342 326.904C674.316 326.904 734.131 261.719 734.131 180.908C734.131 101.562 674.316 38.5742 600.342 38.5742C526.855 38.5742 466.797 102.539 466.797 181.396C466.797 261.963 526.367 326.904 600.342 326.904ZM600.342 286.133C551.025 286.133 510.01 240.234 510.01 181.396C510.01 124.268 550.781 79.3457 600.342 79.3457C650.146 79.3457 690.918 123.535 690.918 180.908C690.918 239.746 650.146 286.133 600.342 286.133ZM398.682 616.699H801.514C849.854 616.699 873.047 601.562 873.047 568.848C873.047 486.572 769.287 368.408 600.098 368.408C430.908 368.408 327.393 486.572 327.393 568.848C327.393 601.562 350.342 616.699 398.682 616.699ZM386.963 575.928C374.756 575.928 370.605 572.754 370.605 563.965C370.605 507.08 453.369 409.424 600.098 409.424C746.826 409.424 829.59 507.08 829.59 563.965C829.59 572.754 825.439 575.928 813.232 575.928H386.963Z" fill="black" fill-opacity="0.85"/>
</g>
<defs>
<clipPath id="clip0_214_32">
<rect width="1200.2" height="655.518" fill="white"/>
</clipPath>
</defs>
</svg>
