<svg width="1080" height="727" viewBox="0 0 1080 727" fill="none" xmlns="http://www.w3.org/2000/svg">
<g clip-path="url(#clip0_123_75)">
<path d="M378.117 658.348C378.117 679.377 364.676 690.768 342.468 690.768H312.955C290.747 690.768 277.013 679.377 277.013 658.348V429.159C319.872 425.872 351.554 418.649 378.117 408.711V658.348ZM802.986 429.159V658.348C802.986 679.377 789.253 690.768 767.045 690.768H737.532C715.324 690.768 701.883 679.377 701.883 658.348V408.711C728.446 418.649 760.128 425.872 802.986 429.159Z" fill="#262626"/>
<path d="M513.701 183.145C513.701 264.925 464.611 323.34 401.201 358.389C374.25 373.259 344.912 384.472 298.693 390.132C305.969 372.832 310.032 352.856 310.032 330.35C310.032 255.497 248.925 180.645 164.606 167.397C171.554 153.573 178.914 142.1 184.091 135.537C229.968 67.776 302.142 35.3559 367.013 36.2321C449.123 37.1083 513.701 91.434 513.701 183.145ZM895.909 135.537C901.086 142.1 908.446 153.573 915.394 167.397C831.073 180.645 769.968 255.497 769.968 330.35C769.968 352.856 774.031 372.832 781.307 390.132C735.088 384.472 705.75 373.259 678.799 358.389C615.389 323.34 566.299 264.925 566.299 183.145C566.299 91.434 630.877 37.1083 712.987 36.2321C777.856 35.3559 850.032 67.776 895.909 135.537ZM414.35 119.765L360.877 164.744C353.571 170.878 352.695 181.393 358.539 188.402C364.676 195.996 375.487 196.58 382.208 190.739L436.558 145.76C443.864 139.626 444.156 129.112 438.02 122.101C432.467 114.508 421.656 113.632 414.35 119.765ZM641.98 122.101C635.844 129.112 636.136 139.626 643.442 145.76L697.792 190.739C704.513 196.58 715.324 195.996 721.461 188.402C727.305 181.393 726.429 170.878 719.123 164.744L665.649 119.765C658.344 113.632 647.533 114.508 641.98 122.101Z" fill="#262626"/>
<path d="M168.604 436.373C226.753 436.373 275.259 400.155 275.259 330.35C275.259 266.094 215.65 200.085 137.63 200.085C73.3442 200.085 34.7727 250.322 34.7727 304.647C34.7727 382.923 101.396 436.373 168.604 436.373ZM150.78 382.339C140.26 391.393 122.435 382.048 100.812 355.761C79.4805 330.059 73.6363 311.658 83.8637 302.603C94.6754 293.549 112.208 302.603 133.831 328.89C154.871 355.469 161.006 373.577 150.78 382.339ZM911.396 436.373C978.604 436.373 1045.23 382.923 1045.23 304.647C1045.23 250.322 1006.66 200.085 942.371 200.085C864.351 200.085 804.74 266.094 804.74 330.35C804.74 400.155 853.247 436.373 911.396 436.373ZM929.22 382.339C918.993 373.577 925.129 355.469 946.168 328.89C967.792 302.603 985.324 293.549 996.136 302.603C1006.36 311.658 1000.52 330.059 979.188 355.761C957.857 382.048 939.74 391.393 929.22 382.339Z" fill="black" fill-opacity="0.425"/>
</g>
<defs>
<clipPath id="clip0_123_75">
<rect width="1080" height="727" fill="white"/>
</clipPath>
</defs>
</svg>
