<svg width="870" height="637" viewBox="0 0 870 637" fill="none" xmlns="http://www.w3.org/2000/svg">
<g clip-path="url(#clip0_123_128)">
<path d="M317.871 636.475C491.943 636.475 635.986 492.432 635.986 318.359C635.986 144.531 491.699 0.488281 317.627 0.488281C143.799 0.488281 0 144.531 0 318.359C0 492.432 144.043 636.475 317.871 636.475ZM317.871 577.148C174.561 577.148 59.082 461.67 59.082 318.115C59.082 174.316 174.316 58.8379 317.627 58.8379C461.426 58.8379 576.66 174.316 576.904 318.115C577.393 461.426 461.67 577.148 317.871 577.148ZM317.871 551.27C447.266 551.27 551.27 447.021 551.025 318.115C550.781 188.477 446.777 84.9609 317.627 84.9609C188.721 84.9609 84.9609 188.721 84.9609 318.115C84.9609 447.266 188.721 551.27 317.871 551.27ZM320.801 407.227C302.49 407.227 296.143 417.236 281.738 417.236C266.602 417.236 256.348 403.809 244.385 386.963C231.201 367.676 219.971 337.402 219.971 308.594C219.971 262.695 249.756 238.037 279.541 238.037C294.922 238.037 307.861 248.535 317.627 248.535C327.148 248.535 341.797 237.793 359.375 237.793C366.455 237.793 390.625 238.037 406.494 260.742C405.273 262.207 381.104 275.635 381.104 306.152C381.104 341.309 411.865 354.004 412.842 354.248C412.842 354.98 407.959 371.338 396.729 387.695C386.475 402.1 375.488 416.748 359.375 416.748C343.262 416.748 339.6 407.227 320.801 407.227ZM351.318 217.773C343.262 227.783 330.078 234.863 319.092 234.863C317.627 234.863 316.895 234.619 315.918 234.619C315.918 233.887 315.43 231.934 315.43 230.469C315.43 217.773 322.021 206.055 328.613 198.242C337.158 187.988 351.318 180.42 363.525 180.176C363.77 181.396 363.77 183.105 363.77 184.814C363.77 197.266 358.398 208.984 351.318 217.773Z" fill="#262626"/>
</g>
<path d="M666.338 440.484C675.127 450.494 691.24 450.494 700.762 438.531C728.35 405.572 744.463 363.336 744.463 317.682C744.463 272.027 728.35 229.547 700.762 196.588C691.24 184.625 675.127 184.869 666.338 194.879C657.793 204.4 661.211 216.607 669.756 227.838C690.508 251.52 700.762 283.502 700.762 317.682C700.762 351.861 690.508 383.6 669.756 407.281C661.211 418.512 657.793 430.719 666.338 440.484Z" fill="#007AFF"/>
<path d="M753.496 529.352C762.041 539.361 777.178 539.117 787.432 527.887C839.434 472.467 869.219 398.248 869.219 317.682C869.219 236.871 839.434 162.896 787.432 107.232C777.178 96.002 762.041 96.002 753.496 106.012C744.951 115.533 747.637 128.228 757.158 138.971C800.859 186.334 825.518 248.59 825.518 317.682C825.518 386.529 800.859 448.785 757.158 496.148C747.637 506.891 744.951 519.586 753.496 529.352Z" fill="#007AFF"/>
<defs>
<clipPath id="clip0_123_128">
<rect width="635.986" height="636.475" fill="white"/>
</clipPath>
</defs>
</svg>
