<svg width="50" height="50" viewBox="0 0 50 50" fill="none" xmlns="http://www.w3.org/2000/svg">
<g clip-path="url(#clip0_298_21)">
<path d="M0.0384092 24.9904C0.0384086 38.6756 11.3541 50 25.0096 50C38.6843 50 50 38.6564 50 24.9712C50 11.3052 38.6843 -4.94624e-07 25.0096 -1.09236e-06C11.3541 -1.68927e-06 0.0384098 11.3244 0.0384092 24.9904ZM3.60572 24.9904C3.60572 13.1286 13.1569 3.58925 25.0096 3.58925C36.8815 3.58925 46.4135 13.1094 46.4135 24.9712C46.4135 36.8522 36.8815 46.4108 25.0096 46.4108C13.1569 46.4108 3.60572 36.8714 3.60572 24.9904Z" fill="#007AFF"/>
<path d="M25.0479 12.2457C24.5685 12.2457 24.2041 12.4568 23.8013 12.8599L15.1515 21.5164C14.8638 21.7851 14.6912 22.1689 14.6912 22.6296C14.6912 23.4933 15.3816 24.1459 16.2447 24.1459C16.705 24.1459 17.0886 23.9732 17.3763 23.666L20.9436 20.0576L23.6095 17.025L23.456 21.8426L23.456 36.1613C23.456 37.1018 24.1273 37.7736 25.0288 37.7736C25.9877 37.7736 26.6398 37.1018 26.6398 36.1613L26.6398 21.8426L26.4672 17.025L29.1331 20.0576L32.7196 23.666C33.0072 23.954 33.3908 24.1459 33.8512 24.1459C34.7142 24.1459 35.3855 23.4933 35.3855 22.6296C35.3855 22.1689 35.2321 21.7851 34.9444 21.5164L26.2754 12.8599C25.8535 12.4376 25.489 12.2457 25.0479 12.2457Z" fill="black" fill-opacity="0.85"/>
</g>
<defs>
<clipPath id="clip0_298_21">
<rect width="50" height="50" fill="white" transform="translate(50) rotate(90)"/>
</clipPath>
</defs>
</svg>
