<svg width="50" height="50" viewBox="0 0 50 50" fill="none" xmlns="http://www.w3.org/2000/svg">
<g clip-path="url(#clip0_94_46)">
<path d="M24.9904 49.9616C38.6756 49.9616 50 38.6459 50 24.9904C50 11.3157 38.6564 0 24.9712 0C11.3052 0 0 11.3157 0 24.9904C0 38.6459 11.3244 49.9616 24.9904 49.9616ZM24.9904 46.3943C13.1286 46.3943 3.58925 36.8431 3.58925 24.9904C3.58925 13.1185 13.1094 3.5865 24.9712 3.5865C36.8522 3.5865 46.4108 13.1185 46.4108 24.9904C46.4108 36.8431 36.8714 46.3943 24.9904 46.3943Z" fill="#007AFF"/>
<path d="M37.7159 24.952C37.7159 24.5109 37.5432 24.1465 37.121 23.7246L28.4646 15.0556C28.1766 14.7679 27.7928 14.6145 27.3512 14.6145C26.4684 14.6145 25.8157 15.2857 25.8157 16.1488C25.8157 16.6091 26.0077 16.9927 26.3148 17.2804L29.904 20.8669L32.9367 23.5328L28.119 23.3601H13.8004C12.8791 23.3601 12.2073 24.0122 12.2073 24.9712C12.2073 25.8727 12.8599 26.5439 13.8004 26.5439H28.119L32.9558 26.3905L29.904 29.0564L26.3148 32.6237C25.9885 32.9113 25.8157 33.2949 25.8157 33.7553C25.8157 34.6183 26.4684 35.3088 27.3512 35.3088C27.7928 35.3088 28.1766 35.1362 28.4646 34.8485L37.121 26.1987C37.5048 25.7959 37.7159 25.4315 37.7159 24.952Z" fill="black" fill-opacity="0.85"/>
</g>
<defs>
<clipPath id="clip0_94_46">
<rect width="50" height="50" fill="white"/>
</clipPath>
</defs>
</svg>
