<svg width="50" height="50" viewBox="0 0 50 50" fill="none" xmlns="http://www.w3.org/2000/svg">
<g clip-path="url(#clip0_94_36)">
<path d="M24.9904 49.9616C38.6756 49.9616 50 38.6459 50 24.9904C50 11.3157 38.6564 0 24.9712 0C11.3052 0 0 11.3157 0 24.9904C0 38.6459 11.3244 49.9616 24.9904 49.9616ZM24.9904 46.3943C13.1286 46.3943 3.58925 36.8431 3.58925 24.9904C3.58925 13.1185 13.1094 3.5865 24.9712 3.5865C36.8522 3.5865 46.4108 13.1185 46.4108 24.9904C46.4108 36.8431 36.8714 46.3943 24.9904 46.3943Z" fill="#007AFF"/>
<path d="M12.2457 24.952C12.2457 25.4315 12.4568 25.7959 12.8599 26.1987L21.5164 34.8485C21.7851 35.1362 22.1689 35.3088 22.6296 35.3088C23.4933 35.3088 24.1459 34.6183 24.1459 33.7553C24.1459 33.2949 23.9732 32.9113 23.666 32.6237L20.0576 29.0564L17.025 26.3905L21.8426 26.5439H36.1613C37.1018 26.5439 37.7736 25.8727 37.7736 24.9712C37.7736 24.0122 37.1018 23.3601 36.1613 23.3601H21.8426L17.025 23.5328L20.0576 20.8669L23.666 17.2804C23.954 16.9927 24.1459 16.6091 24.1459 16.1488C24.1459 15.2857 23.4933 14.6145 22.6296 14.6145C22.1689 14.6145 21.7851 14.7679 21.5164 15.0556L12.8599 23.7246C12.4376 24.1465 12.2457 24.5109 12.2457 24.952Z" fill="black" fill-opacity="0.85"/>
</g>
<defs>
<clipPath id="clip0_94_36">
<rect width="50" height="50" fill="white"/>
</clipPath>
</defs>
</svg>
