<svg width="553" height="626" viewBox="0 0 553 626" fill="none" xmlns="http://www.w3.org/2000/svg">
<g clip-path="url(#clip0_269_35)">
<path d="M94.9707 625.488H464.6C520.508 625.488 552.246 593.506 552.246 531.25V202.637C552.246 140.625 520.264 108.643 457.275 108.643H94.9707C31.9824 108.643 0 140.381 0 202.637V531.25C0 593.75 31.9824 625.488 94.9707 625.488ZM155.762 120.85L198.975 121.094C198.975 74.707 230.957 41.0156 276.123 41.0156C321.289 41.0156 353.271 74.707 353.271 121.094L396.484 120.85C396.484 53.2227 344.238 0 276.123 0C208.008 0 155.762 53.2227 155.762 120.85Z" fill="#A2845E"/>
</g>
<defs>
<clipPath id="clip0_269_35">
<rect width="552.246" height="625.732" fill="white"/>
</clipPath>
</defs>
</svg>
