<svg width="817" height="510" viewBox="0 0 817 510" fill="none" xmlns="http://www.w3.org/2000/svg">
<g clip-path="url(#clip0_286_56)">
<path d="M84.7168 417.725C84.7168 422.363 87.1582 424.561 91.5527 424.561H340.82C305.664 392.09 284.668 331.543 284.668 254.395C284.668 177.49 305.42 117.432 340.332 84.9609H91.5527C87.1582 84.9609 84.7168 87.1582 84.7168 91.7969V417.725ZM317.627 254.395C317.627 353.271 353.516 419.434 407.227 419.434C462.158 419.434 499.023 353.271 499.023 254.395C499.023 155.518 462.158 89.5996 407.227 89.5996C353.516 89.5996 317.627 155.518 317.627 254.395ZM475.098 424.561H724.609C729.004 424.561 731.445 422.363 731.445 417.725V91.7969C731.445 87.1582 729.004 84.9609 724.609 84.9609H475.342C510.742 117.432 531.738 177.49 531.738 254.395C531.738 331.543 510.498 392.09 475.098 424.561Z" fill="#08812F"/>
<path d="M0 486.572C0 500.488 9.0332 509.277 22.7051 509.277H793.457C807.373 509.277 816.406 500.488 816.406 486.572V22.7051C816.406 9.0332 807.373 0 793.457 0H22.7051C9.0332 0 0 9.0332 0 22.7051V486.572ZM55.6641 436.523V72.998C55.6641 61.7676 62.0117 55.6641 72.5098 55.6641H743.652C754.395 55.6641 760.742 61.7676 760.742 72.998V436.523C760.742 447.51 754.395 453.613 743.652 453.613H72.5098C62.0117 453.613 55.6641 447.51 55.6641 436.523Z" fill="black" fill-opacity="0.85"/>
</g>
<defs>
<clipPath id="clip0_286_56">
<rect width="816.406" height="509.521" fill="white"/>
</clipPath>
</defs>
</svg>
