<svg width="1248" height="928" viewBox="0 0 1248 928" fill="none" xmlns="http://www.w3.org/2000/svg">
<g clip-path="url(#clip0_125_166)">
<path d="M712.646 822.75L522.705 645.748C508.301 632.32 492.188 625.729 474.365 625.729C456.543 625.729 441.162 632.076 426.514 645.26L283.447 772.945L224.609 719.234C211.182 707.271 197.266 700.924 181.885 700.924C167.236 700.924 154.053 706.783 141.357 718.746L21.9727 827.633C25.1465 882.32 46.1426 908.199 92.041 908.199H631.104C686.523 908.199 712.402 877.193 712.646 822.75ZM94.9707 927.975H644.531C707.764 927.975 739.746 895.992 739.746 833.98V448.238C739.746 385.982 707.764 354 644.531 354H94.9707C31.9824 354 0 385.738 0 448.238V833.98C0 896.48 31.9824 927.975 94.9707 927.975ZM95.9473 884.762C61.7676 884.762 43.2129 866.695 43.2129 831.539V450.436C43.2129 415.523 61.7676 397.213 95.9473 397.213H643.799C677.246 397.213 696.289 415.523 696.289 450.436V831.539C696.289 866.695 677.246 884.762 643.799 884.762H95.9473Z" fill="#007AFF"/>
<path d="M232.666 645.016C273.438 645.016 306.641 611.812 306.641 570.797C306.641 530.025 273.438 496.334 232.666 496.334C191.65 496.334 158.447 530.025 158.447 570.797C158.447 611.812 191.65 645.016 232.666 645.016Z" fill="#007AFF"/>
</g>
<rect x="599" y="127" width="579" height="433" fill="white"/>
<path d="M576.971 593.994H1152.41C1215.4 593.994 1247.38 562.256 1247.38 500V169.434C1247.38 107.422 1215.4 75.4395 1152.41 75.4395H1060.86C1035.71 75.4395 1028.63 71.5332 1013.74 54.9316L987.859 25.8789C971.746 8.30078 956.609 0 924.871 0H800.848C769.109 0 753.973 8.30078 737.859 25.8789L711.98 54.9316C697.576 71.0449 689.764 75.4395 664.861 75.4395H576.971C513.982 75.4395 482 107.422 482 169.434V500C482 562.256 513.982 593.994 576.971 593.994ZM864.812 504.639C769.109 504.639 692.205 427.979 692.205 331.787C692.205 235.352 769.109 158.691 864.812 158.691C960.76 158.691 1037.42 235.352 1037.42 331.787C1037.42 427.979 960.516 504.639 864.812 504.639ZM864.812 463.379C937.322 463.379 996.16 404.785 996.16 331.787C996.16 258.545 937.322 199.951 864.812 199.951C792.059 199.951 733.221 258.545 733.221 331.787C733.221 404.785 792.303 463.379 864.812 463.379ZM1057.93 216.064C1057.93 195.068 1076.24 176.758 1097.97 176.758C1118.96 176.758 1137.03 195.068 1137.03 216.064C1137.03 238.037 1118.96 255.615 1097.97 255.371C1076.24 255.371 1057.93 238.281 1057.93 216.064Z" fill="#262626"/>
<defs>
<clipPath id="clip0_125_166">
<rect width="739.746" height="573.975" fill="white" transform="translate(0 354)"/>
</clipPath>
</defs>
</svg>
