<svg width="42" height="37" viewBox="0 0 42 37" fill="none" xmlns="http://www.w3.org/2000/svg">
<g clip-path="url(#clip0_41_26)">
<path d="M14.2513 28.4656H34.7078C35.3916 28.4656 35.9875 27.9036 35.9875 27.1486C35.9875 26.3933 35.3916 25.8314 34.7078 25.8314H14.5493C13.5501 25.8314 12.9366 25.129 12.7788 24.0578L9.90403 4.51304C9.72873 3.16087 9.2379 2.47601 7.44993 2.47601H1.29716C0.595994 2.47601 0 3.09064 0 3.79306C0 4.51304 0.595994 5.12765 1.29716 5.12765H7.22205L10.0267 24.409C10.3948 26.9026 11.7095 28.4656 14.2513 28.4656ZM11.0259 22.214H34.743C37.3021 22.214 38.617 20.6335 38.9851 18.1224L40.3874 8.83292C40.4224 8.60464 40.4576 8.32367 40.4576 8.16562C40.4576 7.32272 39.8264 6.74322 38.8624 6.74322H9.50085L9.51837 9.39485H37.4775L36.2329 17.8063C36.0927 18.8951 35.5143 19.58 34.4801 19.58H10.9908L11.0259 22.214ZM15.6361 37C17.2137 37 18.4759 35.7531 18.4759 34.1551C18.4759 32.5746 17.2137 31.3103 15.6361 31.3103C14.0409 31.3103 12.7788 32.5746 12.7788 34.1551C12.7788 35.7531 14.0409 37 15.6361 37ZM32.0259 37C33.6212 37 34.8832 35.7531 34.8832 34.1551C34.8832 32.5746 33.6212 31.3103 32.0259 31.3103C30.4483 31.3103 29.1687 32.5746 29.1687 34.1551C29.1687 35.7531 30.4483 37 32.0259 37Z" fill="black" fill-opacity="0.85"/>
</g>
<defs>
<clipPath id="clip0_41_26">
<rect width="42" height="37" fill="white"/>
</clipPath>
</defs>
</svg>
