<svg width="700" height="765" viewBox="0 0 700 765" fill="none" xmlns="http://www.w3.org/2000/svg">
<g clip-path="url(#clip0_123_45)">
<path d="M608.643 115.479V266.731C607.631 266.615 606.554 266.602 605.469 266.602H487.305V144.043C487.305 134.277 479.248 125.977 469.238 125.977C459.473 125.977 451.416 134.277 451.416 144.043V267.231C400.199 272.117 370.117 308.332 370.117 358.643V673.34C370.117 696.673 376.646 716.947 388.823 732.422H176.514C124.268 732.422 90.5762 699.951 90.5762 649.414V115.479C90.5762 64.9414 124.268 32.4707 176.514 32.4707H522.705C574.951 32.4707 608.643 64.9414 608.643 115.479ZM294.189 144.043V620.85C294.189 630.615 302.246 638.672 312.256 638.672C322.021 638.672 330.078 630.615 330.078 620.85V144.043C330.078 134.277 322.021 125.977 312.256 125.977C302.246 125.977 294.189 134.277 294.189 144.043Z" fill="black" fill-opacity="0.85"/>
<path d="M463.623 730.957H605.469C643.799 730.957 665.283 710.205 665.283 673.34V358.643C665.283 321.777 643.555 300.781 605.469 300.781H463.623C425.781 300.781 404.053 321.777 404.053 358.643V673.34C404.053 710.205 425.537 730.957 463.623 730.957ZM460.205 420.41C444.58 420.41 435.547 411.865 435.547 397.217V357.422C435.547 343.262 444.58 334.229 460.205 334.229H497.314C512.939 334.229 521.973 343.262 521.973 357.422V397.217C521.973 411.865 512.939 420.41 497.314 420.41H460.205Z" fill="black" fill-opacity="0.85"/>
</g>
<defs>
<clipPath id="clip0_123_45">
<rect width="699.219" height="764.893" fill="white"/>
</clipPath>
</defs>
</svg>
