<svg width="636" height="637" viewBox="0 0 636 637" fill="none" xmlns="http://www.w3.org/2000/svg">
<path d="M317.871 635.986C491.943 635.986 635.986 491.943 635.986 318.115C635.986 144.043 491.699 0 317.627 0C143.799 0 0 144.043 0 318.115C0 491.943 144.043 635.986 317.871 635.986ZM317.871 590.576C166.992 590.576 45.6543 468.994 45.6543 318.115C45.6543 166.992 166.748 45.6543 317.627 45.6543C468.75 45.6543 590.332 166.992 590.332 318.115C590.332 468.994 468.994 590.576 317.871 590.576Z" fill="black" fill-opacity="0.425"/>
<path d="M144.531 251.709H491.699C503.662 251.709 512.207 244.141 512.207 232.666C512.207 221.191 503.662 213.379 491.699 213.379H144.531C132.568 213.379 124.023 221.191 124.023 232.666C124.023 244.141 132.568 251.709 144.531 251.709ZM190.918 355.713H445.312C457.275 355.713 465.82 348.145 465.82 336.67C465.82 325.195 457.275 317.383 445.312 317.383H190.918C178.955 317.383 170.41 325.195 170.41 336.67C170.41 348.145 178.955 355.713 190.918 355.713ZM239.502 460.449H396.973C408.691 460.449 417.236 452.637 417.236 441.162C417.236 429.688 408.691 422.119 396.973 422.119H239.502C227.539 422.119 218.994 429.688 218.994 441.162C218.994 452.637 227.539 460.449 239.502 460.449Z" fill="black" fill-opacity="0.85"/>
</svg>
