<svg width="903" height="565" viewBox="0 0 903 565" fill="none" xmlns="http://www.w3.org/2000/svg">
<path d="M191.65 218.75C191.65 205.078 200.195 196.289 214.844 196.289H278.32V133.057C278.32 118.896 286.621 110.107 300.537 110.107C313.965 110.107 322.266 118.896 322.266 133.057V196.289H383.301C398.682 196.289 407.959 205.078 407.959 218.75C407.959 233.154 398.682 241.943 383.301 241.943H322.266V305.42C322.266 319.58 313.965 328.369 300.537 328.369C286.621 328.369 278.32 319.58 278.32 305.42V241.943H214.844C200.195 241.943 191.65 233.154 191.65 218.75ZM651.367 213.867C626.709 213.867 606.201 193.848 606.201 168.701C606.201 143.555 626.709 123.535 651.367 123.535C676.514 123.535 696.777 143.555 696.777 168.701C696.777 193.848 676.514 213.867 651.367 213.867ZM554.443 310.059C529.541 310.059 509.277 290.039 509.277 264.893C509.277 239.99 529.541 219.727 554.443 219.727C579.59 219.727 599.854 239.99 599.854 264.893C599.854 290.039 579.59 310.059 554.443 310.059ZM116.455 564.209C156.982 564.209 187.012 548.828 212.891 516.846L270.996 446.533C279.297 436.523 288.574 431.885 298.584 431.885H604.004C614.014 431.885 623.291 436.523 631.592 446.533L689.453 516.846C715.576 548.828 745.605 564.209 786.133 564.209C855.957 564.209 902.588 517.578 902.588 446.045C902.588 415.283 895.264 379.639 883.057 338.623C863.77 274.17 830.078 186.523 797.607 117.92C770.996 62.2559 757.568 37.8418 692.871 23.1934C632.568 9.27734 550.049 0.488281 451.172 0.488281C352.539 0.488281 270.02 9.27734 209.717 23.1934C145.02 37.8418 131.592 62.2559 104.98 117.92C72.5098 186.523 38.8184 274.17 19.5312 338.623C7.32422 379.639 0 415.283 0 446.045C0 517.578 46.6309 564.209 116.455 564.209Z" fill="#262626"/>
</svg>
