<svg width="555" height="432" viewBox="0 0 555 432" fill="none" xmlns="http://www.w3.org/2000/svg">
<g clip-path="url(#clip0_204_33)">
<path d="M71.9852 399.504C46.3416 399.504 32.4208 385.918 32.4208 359.663V72.8875C32.4208 46.6334 46.3416 33.0474 71.9852 33.0474H483.015C508.109 33.0474 522.396 46.6334 522.396 72.8875V359.663C522.396 385.918 508.109 399.504 483.015 399.504H71.9852Z" fill="black" fill-opacity="0.2125"/>
<path d="M71.2525 432H483.564C531.005 432 555 408.133 555 361.316V71.235C555 24.4182 531.005 0.550781 483.564 0.550781H71.2525C23.995 0.550781 0 24.2346 0 71.235V361.316C0 408.316 23.995 432 71.2525 432ZM71.9852 399.504C46.3416 399.504 32.4208 385.918 32.4208 359.663V72.8873C32.4208 46.6332 46.3416 33.0472 71.9852 33.0472H483.015C508.109 33.0472 522.396 46.6332 522.396 72.8873V359.663C522.396 385.918 508.109 399.504 483.015 399.504H71.9852ZM182.436 381.328H372.564C378.242 381.328 382.456 377.288 382.456 371.413C382.456 365.538 378.242 361.499 372.564 361.499H182.436C176.575 361.499 172.544 365.538 172.544 371.413C172.544 377.288 176.575 381.328 182.436 381.328Z" fill="black" fill-opacity="0.85"/>
</g>
<defs>
<clipPath id="clip0_204_33">
<rect width="555" height="432" fill="white"/>
</clipPath>
</defs>
</svg>
