<svg width="392" height="656" viewBox="0 0 392 656" fill="none" xmlns="http://www.w3.org/2000/svg">
<g clip-path="url(#clip0_204_44)">
<path d="M88.623 612.305C58.8379 612.305 43.2129 597.168 43.2129 568.604V86.9141C43.2129 58.3496 58.8379 43.2129 88.623 43.2129H302.979C332.52 43.2129 348.145 58.3496 348.145 86.9141V568.604C348.145 597.168 332.52 612.305 302.979 612.305H88.623Z" fill="black" fill-opacity="0.2125"/>
<path d="M83.252 655.518H308.105C359.131 655.518 391.602 624.268 391.602 574.951V80.5664C391.602 31.25 359.131 0 308.105 0H83.252C32.2266 0 0 31.25 0 80.5664V574.951C0 624.268 32.2266 655.518 83.252 655.518ZM88.623 612.305C58.8379 612.305 43.2129 597.168 43.2129 568.604V86.9141C43.2129 58.3496 58.8379 43.2129 88.623 43.2129H302.979C332.52 43.2129 348.145 58.3496 348.145 86.9141V568.604C348.145 597.168 332.52 612.305 302.979 612.305H88.623ZM129.883 589.6H261.719C269.531 589.6 274.902 584.229 274.902 576.416C274.902 568.604 269.531 563.232 261.719 563.232H129.883C122.314 563.232 116.699 568.604 116.699 576.416C116.699 584.229 122.314 589.6 129.883 589.6ZM158.691 104.492H233.154C244.385 104.492 253.174 95.7031 253.174 84.2285C253.174 73.2422 244.385 64.4531 233.154 64.4531H158.691C147.217 64.4531 138.428 73.2422 138.428 84.2285C138.428 95.7031 147.217 104.492 158.691 104.492Z" fill="black" fill-opacity="0.85"/>
</g>
<defs>
<clipPath id="clip0_204_44">
<rect width="391.602" height="656.006" fill="white"/>
</clipPath>
</defs>
</svg>
