<svg width="608" height="609" viewBox="0 0 608 609" fill="none" xmlns="http://www.w3.org/2000/svg">
<g clip-path="url(#clip0_237_26)">
<path d="M21.7285 196.289C35.6445 196.289 43.2129 188.232 43.2129 174.316V97.168C43.2129 62.0117 61.7676 43.9453 95.9473 43.9453H174.561C188.477 43.9453 196.533 36.1328 196.533 22.4609C196.533 8.54492 188.477 0.732422 174.561 0.732422H94.9707C31.9824 0.732422 0 32.2266 0 94.7266V174.316C0 188.232 7.8125 196.289 21.7285 196.289ZM586.182 196.289C600.342 196.289 607.91 188.232 607.91 174.316V94.7266C607.91 32.7148 576.172 0.732422 512.939 0.732422H433.35C419.434 0.732422 411.377 8.54492 411.377 22.4609C411.377 36.1328 419.434 43.9453 433.35 43.9453H511.963C545.41 43.9453 564.697 62.0117 564.697 97.168V174.316C564.697 188.232 572.51 196.289 586.182 196.289ZM94.9707 608.643H174.561C188.477 608.643 196.533 600.83 196.533 586.914C196.533 573.242 188.477 565.43 174.561 565.43H95.9473C61.7676 565.43 43.2129 547.363 43.2129 512.207V435.059C43.2129 421.143 35.4004 413.086 21.7285 413.086C7.56836 413.086 0 421.143 0 435.059V514.648C0 577.148 31.9824 608.643 94.9707 608.643ZM433.35 608.643H512.939C576.172 608.643 607.91 576.66 607.91 514.648V435.059C607.91 421.143 600.098 413.086 586.182 413.086C572.266 413.086 564.697 421.143 564.697 435.059V512.207C564.697 547.363 545.41 565.43 511.963 565.43H433.35C419.434 565.43 411.377 573.242 411.377 586.914C411.377 600.83 419.434 608.643 433.35 608.643Z" fill="#007AFF"/>
<path d="M304.199 111.572C246.338 111.572 200.439 157.959 200.439 215.088C200.439 259.277 226.562 297.363 267.09 312.744V475.098C267.334 479.004 268.555 482.178 271.484 485.107L298.828 512.207C302.002 515.381 306.152 515.625 309.326 512.207L361.328 460.938C364.746 457.52 364.746 453.125 361.328 450.195L328.613 417.236L373.535 373.047C376.465 370.361 376.221 365.723 372.803 362.549L328.369 317.383C379.395 297.363 407.959 260.254 407.959 215.088C407.959 158.203 361.572 111.572 304.199 111.572ZM303.955 159.912C321.533 159.912 335.693 174.316 335.693 191.895C335.693 209.717 321.533 224.121 303.955 224.121C286.621 224.121 271.973 209.717 271.973 191.895C271.973 174.316 286.133 159.912 303.955 159.912Z" fill="black" fill-opacity="0.85"/>
</g>
<defs>
<clipPath id="clip0_237_26">
<rect width="607.91" height="608.643" fill="white"/>
</clipPath>
</defs>
</svg>
