<svg width="400" height="400" viewBox="0 0 400 400" fill="none" xmlns="http://www.w3.org/2000/svg">
<path d="M390 69L10 69C10 32.5492 39.5492 3.00003 76 3.00003L324 3.00001C360.451 3 390 32.5492 390 69Z" fill="#62BB46"/>
<path d="M390 135L10 135L9.99999 69L390 69L390 135Z" fill="#FDB827"/>
<path d="M390 201L10 201L9.99999 135L390 135L390 201Z" fill="#F5821E"/>
<path d="M390 266.5L10 266.5L9.99999 200.5L390 200.5L390 266.5Z" fill="#DF393E"/>
<path d="M390 332L10 332L9.99999 266L390 266L390 332Z" fill="#963C97"/>
<path d="M10 331.5H390C390 367.951 360.451 397.5 324 397.5H76C39.5492 397.5 10 367.951 10 331.5Z" fill="#009DDB"/>
<rect x="10" y="10" width="380" height="380" rx="48" stroke="black" stroke-width="20"/>
<path d="M138.224 159.559V239.44H103.389C72.3123 239.44 47 264.231 47 295.407C47 326.708 72.3123 352 103.389 352C134.465 352 159.778 326.708 159.778 295.407V260.6H239.223V295.407C239.223 326.708 264.535 352 295.611 352C326.688 352 352 326.708 352 295.407C352 264.231 326.688 239.44 295.611 239.44H260.776V159.559H295.611C326.688 159.559 352 134.894 352 103.593C352 72.4166 326.688 47 295.611 47C264.535 47 239.223 72.4166 239.223 103.593V138.4H159.778V103.593C159.778 72.4166 134.465 47 103.389 47C72.3123 47 47 72.4166 47 103.593C47 134.894 72.3123 159.559 103.389 159.559H138.224ZM103.389 138.65C84.3418 138.65 68.553 122.874 68.553 103.593C68.553 84.4363 84.3418 68.6605 103.389 68.6605C122.436 68.6605 138.224 84.4363 138.224 103.593V138.65H103.389ZM295.611 138.65H260.776V103.593C260.776 84.4363 276.565 68.6605 295.611 68.6605C314.658 68.6605 330.447 84.4363 330.447 103.593C330.447 122.874 314.658 138.65 295.611 138.65ZM159.778 239.691V159.309H239.223V239.691H159.778ZM103.389 260.224H138.224V295.282C138.224 314.564 122.436 330.339 103.389 330.339C84.3418 330.339 68.553 314.564 68.553 295.282C68.553 276 84.3418 260.224 103.389 260.224ZM295.611 260.224C314.658 260.224 330.447 276 330.447 295.282C330.447 314.564 314.658 330.339 295.611 330.339C276.565 330.339 260.776 314.564 260.776 295.282V260.224H295.611Z" fill="black"/>
</svg>
