<svg width="1440" height="400" viewBox="0 0 1440 400" fill="none" xmlns="http://www.w3.org/2000/svg">
<path d="M390 69L10 69C10 32.5492 39.5492 3.00003 76 3.00003L324 3.00001C360.451 3 390 32.5492 390 69Z" fill="#62BB46"/>
<path d="M390 135L10 135L9.99999 69L390 69L390 135Z" fill="#FDB827"/>
<path d="M390 201L10 201L9.99999 135L390 135L390 201Z" fill="#F5821E"/>
<path d="M390 266.5L10 266.5L9.99999 200.5L390 200.5L390 266.5Z" fill="#DF393E"/>
<path d="M390 332L10 332L9.99999 266L390 266L390 332Z" fill="#963C97"/>
<path d="M10 331.5H390C390 367.951 360.451 397.5 324 397.5H76C39.5492 397.5 10 367.951 10 331.5Z" fill="#009DDB"/>
<rect x="10" y="10" width="380" height="380" rx="48" stroke="black" stroke-width="20"/>
<path d="M138.224 159.559V239.44H103.389C72.3123 239.44 47 264.231 47 295.407C47 326.708 72.3123 352 103.389 352C134.465 352 159.778 326.708 159.778 295.407V260.6H239.223V295.407C239.223 326.708 264.535 352 295.611 352C326.688 352 352 326.708 352 295.407C352 264.231 326.688 239.44 295.611 239.44H260.776V159.559H295.611C326.688 159.559 352 134.894 352 103.593C352 72.4166 326.688 47 295.611 47C264.535 47 239.223 72.4166 239.223 103.593V138.4H159.778V103.593C159.778 72.4166 134.465 47 103.389 47C72.3123 47 47 72.4166 47 103.593C47 134.894 72.3123 159.559 103.389 159.559H138.224ZM103.389 138.65C84.3418 138.65 68.553 122.874 68.553 103.593C68.553 84.4363 84.3418 68.6605 103.389 68.6605C122.436 68.6605 138.224 84.4363 138.224 103.593V138.65H103.389ZM295.611 138.65H260.776V103.593C260.776 84.4363 276.565 68.6605 295.611 68.6605C314.658 68.6605 330.447 84.4363 330.447 103.593C330.447 122.874 314.658 138.65 295.611 138.65ZM159.778 239.691V159.309H239.223V239.691H159.778ZM103.389 260.224H138.224V295.282C138.224 314.564 122.436 330.339 103.389 330.339C84.3418 330.339 68.553 314.564 68.553 295.282C68.553 276 84.3418 260.224 103.389 260.224ZM295.611 260.224C314.658 260.224 330.447 276 330.447 295.282C330.447 314.564 314.658 330.339 295.611 330.339C276.565 330.339 260.776 314.564 260.776 295.282V260.224H295.611Z" fill="black"/>
<path d="M447.266 257V144.266H485.547L510.469 211.375H511.016L535.938 144.266H574.219V257H545.312V191.688H544.766L519.609 257H501.875L476.719 191.688H476.172V257H447.266ZM612.969 258.094C595.547 258.094 583.672 246.844 583.672 232V231.922C583.672 215.281 596.484 206.141 619.453 204.578L637.578 203.406V199.891C637.578 194.891 634.375 191.766 627.812 191.766C621.25 191.766 617.578 194.656 616.875 198.172L616.719 198.953H588.125L588.203 197.938C589.531 180.359 604.453 168.875 629.609 168.875C653.594 168.875 669.609 180.828 669.609 198.328V257H637.578V245.281H636.953C632.109 253.484 624.062 258.094 612.969 258.094ZM614.922 229.656C614.922 234.188 618.75 236.609 624.688 236.609C632.344 236.609 637.578 232.391 637.578 226.688V221.219L624.766 222.156C617.969 222.625 614.922 225.281 614.922 229.578V229.656ZM721.875 258.875C699.531 258.875 689.453 251.219 689.453 230.906V193.875H678.047V170.75H689.453V151.844H721.484V170.75H736.641V193.875H721.484V225.984C721.484 232.938 724.609 235.75 731.172 235.75C733.594 235.75 734.922 235.594 736.641 235.359V257.703C733.203 258.328 728.672 258.875 721.875 258.875ZM790 258.875C762.031 258.875 745 242 745 213.797V213.719C745 185.75 762.109 168.875 789.766 168.875C814.922 168.875 831.875 183.484 831.875 205.75V206.219H802.734L802.656 205.438C801.875 197.625 797.266 192.625 790.391 192.625C782.109 192.625 777.5 200.203 777.5 213.797V213.875C777.5 227.703 781.875 235.125 790.391 235.125C797.578 235.125 801.875 230.203 802.656 222.312L802.734 221.531H831.875V222C831.875 243.094 816.406 258.875 790 258.875ZM841.797 257V144.266H873.828V186.766H874.453C878.672 175.125 887.5 168.875 900.547 168.875C919.531 168.875 930.156 180.906 930.156 201.609V257H898.125V208.641C898.125 199.969 894.062 194.656 886.016 194.656C878.438 194.656 873.828 200.516 873.828 208.562V257H841.797ZM938.516 257L975.312 144.266H1016.88L1053.67 257H1018.83L1012.97 234.578H979.219L973.359 257H938.516ZM995.781 171.141L985.312 211.219H1006.88L996.406 171.141H995.781ZM1062.03 284.344V170.75H1094.06V186.297H1094.77C1098.83 175.359 1107.97 168.875 1120.16 168.875C1141.88 168.875 1153.98 184.891 1153.98 213.797V213.875C1153.98 242.625 1142.03 258.875 1120.55 258.875C1108.05 258.875 1098.67 252.547 1094.69 242.078H1094.06V284.344H1062.03ZM1107.73 233.094C1116.09 233.094 1121.48 225.75 1121.48 213.875V213.797C1121.48 201.766 1116.02 194.656 1107.73 194.656C1099.38 194.656 1093.91 201.766 1093.91 213.875V213.953C1093.91 225.984 1099.3 233.094 1107.73 233.094ZM1164.06 284.344V170.75H1196.09V186.297H1196.8C1200.86 175.359 1210 168.875 1222.19 168.875C1243.91 168.875 1256.02 184.891 1256.02 213.797V213.875C1256.02 242.625 1244.06 258.875 1222.58 258.875C1210.08 258.875 1200.7 252.547 1196.72 242.078H1196.09V284.344H1164.06ZM1209.77 233.094C1218.12 233.094 1223.52 225.75 1223.52 213.875V213.797C1223.52 201.766 1218.05 194.656 1209.77 194.656C1201.41 194.656 1195.94 201.766 1195.94 213.875V213.953C1195.94 225.984 1201.33 233.094 1209.77 233.094ZM1266.48 257V144.266H1298.52V257H1266.48ZM1353.75 258.875C1325.78 258.875 1308.75 241.922 1308.75 213.875V213.797C1308.75 185.75 1325.78 168.875 1352.73 168.875C1379.61 168.875 1396.8 185.75 1396.8 212V221.062H1340C1340.31 230.984 1345.62 236.844 1354.38 236.844C1362.81 236.844 1366.95 231.766 1367.81 229.266L1367.89 229.031H1396.41L1396.17 230.047C1393.59 241.297 1383.75 258.875 1353.75 258.875ZM1353.59 190.906C1346.64 190.906 1341.8 195.281 1340.39 202.938H1366.8C1365.39 195.281 1360.55 190.906 1353.59 190.906Z" fill="black"/>
</svg>
