<svg width="588" height="588" viewBox="0 0 588 588" fill="none" xmlns="http://www.w3.org/2000/svg">
<circle cx="294" cy="294" r="294" fill="white"/>
<path d="M484 163L104 163V163C104 126.549 133.549 97 170 97L418 97C454.451 97 484 126.549 484 163V163Z" fill="#62BB46"/>
<path d="M484 229L104 229L104 163L484 163L484 229Z" fill="#FDB827"/>
<path d="M484 295L104 295L104 229L484 229L484 295Z" fill="#F5821E"/>
<path d="M484 360.5L104 360.5L104 294.5L484 294.5L484 360.5Z" fill="#DF393E"/>
<path d="M484 426L104 426L104 360L484 360L484 426Z" fill="#963C97"/>
<path d="M104 425.5H484V425.5C484 461.951 454.451 491.5 418 491.5H170C133.549 491.5 104 461.951 104 425.5V425.5Z" fill="#009DDB"/>
<rect x="104" y="104" width="380" height="380" rx="48" stroke="black" stroke-width="20"/>
<path d="M232.224 253.559V333.44H197.389C166.312 333.44 141 358.231 141 389.407C141 420.708 166.312 446 197.389 446C228.465 446 253.778 420.708 253.778 389.407V354.6H333.223V389.407C333.223 420.708 358.535 446 389.611 446C420.688 446 446 420.708 446 389.407C446 358.231 420.688 333.44 389.611 333.44H354.776V253.559H389.611C420.688 253.559 446 228.894 446 197.593C446 166.417 420.688 141 389.611 141C358.535 141 333.223 166.417 333.223 197.593V232.4H253.778V197.593C253.778 166.417 228.465 141 197.389 141C166.312 141 141 166.417 141 197.593C141 228.894 166.312 253.559 197.389 253.559H232.224ZM197.389 232.65C178.342 232.65 162.553 216.874 162.553 197.593C162.553 178.436 178.342 162.66 197.389 162.66C216.436 162.66 232.224 178.436 232.224 197.593V232.65H197.389ZM389.611 232.65H354.776V197.593C354.776 178.436 370.565 162.66 389.611 162.66C408.658 162.66 424.447 178.436 424.447 197.593C424.447 216.874 408.658 232.65 389.611 232.65ZM253.778 333.691V253.309H333.223V333.691H253.778ZM197.389 354.224H232.224V389.282C232.224 408.564 216.436 424.339 197.389 424.339C178.342 424.339 162.553 408.564 162.553 389.282C162.553 370 178.342 354.224 197.389 354.224ZM389.611 354.224C408.658 354.224 424.447 370 424.447 389.282C424.447 408.564 408.658 424.339 389.611 424.339C370.565 424.339 354.776 408.564 354.776 389.282V354.224H389.611Z" fill="black"/>
</svg>
