<svg width="1203" height="702" viewBox="0 0 1203 702" fill="none" xmlns="http://www.w3.org/2000/svg">
<path d="M955.021 590C1029.52 590 1073.6 554.018 1080.02 482.053C1088.13 391.844 1087.96 305.69 1079.69 209.568C1073.77 140.982 1029.52 105 955.021 105C880.358 105 836.269 140.982 830.188 209.568C822.08 305.69 821.911 391.844 829.85 482.053C836.438 554.018 880.358 590 955.021 590ZM954.852 505.704C948.095 505.704 945.73 509.082 940.494 509.082C935.088 509.082 931.71 504.183 927.487 498.101C922.42 491.006 918.534 480.195 918.534 469.89C918.534 453.504 929.345 444.888 939.987 444.888C945.393 444.888 949.278 448.098 953.839 448.098C958.23 448.098 961.947 444.888 968.872 444.888C971.237 444.888 980.022 444.888 985.596 452.659C985.089 453.335 976.643 458.065 976.643 469.214C976.643 481.716 987.454 485.938 987.623 486.107C987.623 486.446 986.103 492.527 982.048 498.44C978.163 503.676 974.447 509.082 968.872 509.082C963.13 509.082 961.44 505.704 954.852 505.704ZM952.994 443.537C952.994 432.05 961.102 423.434 969.886 423.434C971.745 433.063 963.13 444.044 952.994 443.537Z" fill="#262626"/>
<path d="M94.9707 597.188H691.406C754.395 597.188 786.377 565.205 786.377 502.949V199.238C786.377 136.982 754.395 105 691.406 105H94.9707C31.7383 105 0 136.738 0 199.238V502.949C0 565.449 31.7383 597.188 94.9707 597.188ZM118.408 274.922C109.375 274.922 104.248 269.551 104.248 260.762V232.441C104.248 223.652 109.375 218.281 118.408 218.281H146.484C155.518 218.281 160.889 223.652 160.889 232.441V260.762C160.889 269.551 155.518 274.922 146.484 274.922H118.408ZM222.168 274.922C213.135 274.922 208.008 269.551 208.008 260.762V232.441C208.008 223.652 213.135 218.281 222.168 218.281H250.488C259.277 218.281 264.648 223.652 264.648 232.441V260.762C264.648 269.551 259.277 274.922 250.488 274.922H222.168ZM325.928 274.922C317.383 274.922 312.012 269.551 312.012 260.762V232.441C312.012 223.652 317.383 218.281 325.928 218.281H354.248C363.037 218.281 368.652 223.652 368.652 232.441V260.762C368.652 269.551 363.037 274.922 354.248 274.922H325.928ZM429.932 274.922C421.143 274.922 415.771 269.551 415.771 260.762V232.441C415.771 223.652 421.143 218.281 429.932 218.281H458.252C467.041 218.281 472.412 223.652 472.412 232.441V260.762C472.412 269.551 467.041 274.922 458.252 274.922H429.932ZM533.936 274.922C524.902 274.922 519.531 269.551 519.531 260.762V232.441C519.531 223.652 524.902 218.281 533.936 218.281H562.012C571.045 218.281 576.172 223.652 576.172 232.441V260.762C576.172 269.551 571.045 274.922 562.012 274.922H533.936ZM637.695 274.922C628.662 274.922 623.291 269.551 623.291 260.762V232.441C623.291 223.652 628.662 218.281 637.695 218.281H665.771C674.805 218.281 679.932 223.652 679.932 232.441V260.762C679.932 269.551 674.805 274.922 665.771 274.922H637.695ZM118.408 378.926C109.375 378.926 104.248 373.311 104.248 364.766V336.201C104.248 327.656 109.375 322.041 118.408 322.041H146.484C155.518 322.041 160.889 327.656 160.889 336.201V364.766C160.889 373.311 155.518 378.926 146.484 378.926H118.408ZM222.168 378.926C213.135 378.926 208.008 373.311 208.008 364.766V336.201C208.008 327.656 213.135 322.041 222.168 322.041H250.488C259.277 322.041 264.648 327.656 264.648 336.201V364.766C264.648 373.311 259.277 378.926 250.488 378.926H222.168ZM325.928 378.926C317.383 378.926 312.012 373.311 312.012 364.766V336.201C312.012 327.656 317.383 322.041 325.928 322.041H354.248C363.037 322.041 368.652 327.656 368.652 336.201V364.766C368.652 373.311 363.037 378.926 354.248 378.926H325.928ZM429.932 378.926C421.143 378.926 415.771 373.311 415.771 364.766V336.201C415.771 327.656 421.143 322.041 429.932 322.041H458.252C467.041 322.041 472.412 327.656 472.412 336.201V364.766C472.412 373.311 467.041 378.926 458.252 378.926H429.932ZM533.936 378.926C524.902 378.926 519.531 373.311 519.531 364.766V336.201C519.531 327.656 524.902 322.041 533.936 322.041H562.012C571.045 322.041 576.172 327.656 576.172 336.201V364.766C576.172 373.311 571.045 378.926 562.012 378.926H533.936ZM637.695 378.926C628.662 378.926 623.291 373.311 623.291 364.766V336.201C623.291 327.656 628.662 322.041 637.695 322.041H665.771C674.805 322.041 679.932 327.656 679.932 336.201V364.766C679.932 373.311 674.805 378.926 665.771 378.926H637.695ZM118.408 482.686C109.375 482.686 104.248 477.314 104.248 468.525V440.205C104.248 431.416 109.375 426.045 118.408 426.045H146.484C155.518 426.045 160.889 431.416 160.889 440.205V468.525C160.889 477.314 155.518 482.686 146.484 482.686H118.408ZM224.854 482.686C214.355 482.686 208.008 476.338 208.008 465.84V442.891C208.008 432.148 214.355 426.045 224.854 426.045H559.326C570.068 426.045 576.172 432.148 576.172 442.891V465.84C576.172 476.338 570.068 482.686 559.326 482.686H224.854ZM637.695 482.686C628.662 482.686 623.291 477.314 623.291 468.525V440.205C623.291 431.416 628.662 426.045 637.695 426.045H665.771C674.805 426.045 679.932 431.416 679.932 440.205V468.525C679.932 477.314 674.805 482.686 665.771 482.686H637.695Z" fill="#262626"/>
</svg>
