<svg width="825" height="600" viewBox="0 0 825 600" fill="none" xmlns="http://www.w3.org/2000/svg">
<g clip-path="url(#clip0_242_56)">
<path d="M152.344 430.664C170.41 430.664 179.199 418.213 179.199 401.123C179.199 395.752 179.199 390.381 179.199 385.254C179.688 342.041 194.58 322.998 246.338 287.109C302.49 248.291 334.229 207.52 334.229 148.682C334.229 57.1289 260.01 1.70898 166.26 1.70898C94.7266 1.70898 33.4473 38.0859 8.54492 99.3652C2.44141 113.77 0 127.197 0 138.184C0 153.32 8.78906 163.818 24.6582 163.818C38.3301 163.818 47.3633 155.762 51.2695 142.334C65.918 79.834 108.887 51.0254 164.551 51.0254C229.004 51.0254 279.785 89.5996 279.785 148.438C279.785 193.359 252.93 220.459 208.74 252.197C156.982 288.818 124.756 323.73 124.756 378.662C124.756 386.475 124.756 394.043 124.756 401.855C124.756 418.945 134.033 430.664 152.344 430.664ZM152.588 599.854C174.561 599.854 191.895 582.031 191.895 560.547C191.895 538.574 174.561 521.24 152.588 521.24C131.104 521.24 113.281 538.574 113.281 560.547C113.281 582.031 131.104 599.854 152.588 599.854Z" fill="black" fill-opacity="0.85"/>
<path d="M824.707 299.316C824.707 230.713 769.775 175.781 701.416 175.781C649.902 175.781 604.736 206.299 585.938 254.15H399.17C394.043 254.15 389.893 255.615 385.986 259.521L354.004 291.26C349.854 295.41 349.365 302.734 354.004 307.617L414.062 368.164C418.701 372.803 425.781 372.559 430.42 368.164L466.064 332.031L516.113 382.08C520.508 386.475 527.344 386.475 532.471 381.592L581.543 332.764C605.469 390.625 649.17 423.096 701.416 423.096C769.287 423.096 824.707 367.676 824.707 299.316ZM710.205 304.443C710.205 285.156 725.586 269.531 744.873 269.531C764.16 269.531 779.785 284.912 779.785 304.443C779.785 323.486 763.916 339.111 744.873 339.111C725.586 339.111 710.205 323.486 710.205 304.443Z" fill="black" fill-opacity="0.85"/>
</g>
<defs>
<clipPath id="clip0_242_56">
<rect width="824.707" height="599.854" fill="white"/>
</clipPath>
</defs>
</svg>
