<svg width="865" height="644" viewBox="0 0 865 644" fill="none" xmlns="http://www.w3.org/2000/svg">
<g clip-path="url(#clip0_126_26)">
<path d="M6.50113 563.831C34.089 653.675 170.32 668.567 319.001 600.94L304.841 570.423C177.4 628.772 58.7472 620.96 38.9718 554.065C-10.8328 390.247 338.288 368.763 298.982 235.95C279.695 170.765 125.642 181.995 15.7785 255.97C-3.99692 268.909 14.8019 296.741 34.089 283.558C116.364 229.114 255.525 207.63 266.999 245.472C275.3 273.548 252.595 293.079 164.46 342.884C79.9875 390.491 -27.6785 450.794 6.50113 563.831Z" fill="#007AFF"/>
<path d="M443.757 541.37L780.427 205.188L730.378 155.14L393.708 491.077L363.191 558.46C360.261 565.296 367.585 572.864 374.421 570.179L443.757 541.37ZM806.306 179.798L836.091 150.501C851.228 135.364 851.96 119.739 838.288 106.067L829.743 97.2784C816.316 84.0948 800.202 85.5597 785.554 99.964L755.769 129.261L806.306 179.798Z" fill="#262626"/>
</g>
<defs>
<clipPath id="clip0_126_26">
<rect width="864.077" height="643.043" fill="white"/>
</clipPath>
</defs>
</svg>
