<svg width="40" height="40" viewBox="0 0 40 40" fill="none" xmlns="http://www.w3.org/2000/svg">
<g clip-path="url(#clip0_83_26)">
<path d="M19.9923 39.9693C30.9405 39.9693 40 30.9167 40 19.9923C40 9.05255 30.9251 0 19.977 0C9.04416 0 0 9.05255 0 19.9923C0 30.9167 9.05951 39.9693 19.9923 39.9693ZM19.9923 37.1154C10.5029 37.1154 2.8714 29.4745 2.8714 19.9923C2.8714 10.4948 10.4875 2.8692 19.977 2.8692C29.4818 2.8692 37.1286 10.4948 37.1286 19.9923C37.1286 29.4745 29.4971 37.1154 19.9923 37.1154ZM33.4895 32.9421L33.4434 32.7579C32.3839 29.9041 27.1939 26.6513 19.9923 26.6513C12.8215 26.6513 7.63149 29.8887 6.54128 32.7273L6.49517 32.9421C10.0422 36.4863 15.8311 38.6037 20.0077 38.6037C24.1842 38.6037 29.881 36.5324 33.4895 32.9421ZM19.9923 23.2758C23.8004 23.3065 26.7639 20.0537 26.7639 15.8189C26.7639 11.8297 23.7697 8.51553 19.9923 8.51553C16.2149 8.51553 13.2054 11.8297 13.2207 15.8189C13.2361 20.0537 16.1843 23.2451 19.9923 23.2758Z" fill="#007AFF"/>
</g>
<defs>
<clipPath id="clip0_83_26">
<rect width="40" height="40" fill="white"/>
</clipPath>
</defs>
</svg>
