<svg width="636" height="637" viewBox="0 0 636 637" fill="none" xmlns="http://www.w3.org/2000/svg">
<g clip-path="url(#clip0_242_46)">
<path d="M317.871 635.986C491.943 635.986 635.986 491.943 635.986 318.115C635.986 144.043 491.699 0 317.627 0C143.799 0 0 144.043 0 318.115C0 491.943 144.043 635.986 317.871 635.986ZM317.871 590.576C166.992 590.576 45.6543 468.994 45.6543 318.115C45.6543 166.992 166.748 45.6543 317.627 45.6543C468.75 45.6543 590.332 166.992 590.332 318.115C590.332 468.994 468.994 590.576 317.871 590.576Z" fill="#28CD41"/>
<path d="M283.447 467.529C292.48 467.529 299.805 463.379 305.176 455.078L454.834 220.459C458.008 215.576 461.182 209.473 461.182 203.613C461.182 191.65 450.439 183.594 439.453 183.594C432.373 183.594 425.537 187.988 420.654 195.801L282.471 415.283L213.623 329.102C207.275 320.801 201.172 318.359 193.848 318.359C182.129 318.359 172.852 327.881 172.852 339.844C172.852 345.703 175.293 351.562 179.199 356.689L260.742 455.078C267.578 463.867 274.414 467.529 283.447 467.529Z" fill="black" fill-opacity="0.85"/>
</g>
<defs>
<clipPath id="clip0_242_46">
<rect width="635.986" height="636.475" fill="white"/>
</clipPath>
</defs>
</svg>
