<svg width="53" height="54" viewBox="0 0 53 54" fill="none" xmlns="http://www.w3.org/2000/svg">
<g clip-path="url(#clip0_102_25)">
<path d="M0 21.6599C0 33.5815 9.62867 43.2984 21.463 43.2984C26.2349 43.2984 30.6251 41.7146 34.1881 39.0392L48.1645 53.1652C48.6947 53.7217 49.437 54 50.2005 54C51.876 54 53 52.7158 53 51.1106C53 50.3187 52.7244 49.6337 52.2153 49.0987L38.3025 34.9941C41.1869 31.3341 42.926 26.6896 42.926 21.6599C42.926 9.71702 33.2974 0 21.463 0C9.62867 0 0 9.71702 0 21.6599ZM3.96599 21.6599C3.96599 11.9215 11.8131 4.00238 21.463 4.00238C31.1128 4.00238 38.9388 11.9215 38.9388 21.6599C38.9388 31.3769 31.1128 39.296 21.463 39.296C11.8131 39.296 3.96599 31.3769 3.96599 21.6599Z" fill="black" fill-opacity="0.85"/>
</g>
<defs>
<clipPath id="clip0_102_25">
<rect width="53" height="54" fill="white"/>
</clipPath>
</defs>
</svg>
