<svg width="692" height="705" viewBox="0 0 692 705" fill="none" xmlns="http://www.w3.org/2000/svg">
<g clip-path="url(#clip0_248_25)">
<path d="M132.518 655.273C143.993 663.818 158.397 661.133 175.731 648.438L345.653 523.926L515.331 648.438C532.909 661.133 547.069 663.818 558.788 655.273C570.018 646.729 572.704 632.568 565.624 612.061L498.973 412.354L670.116 289.307C687.694 276.855 694.286 263.916 689.891 250.244C685.497 236.816 672.557 229.98 650.829 230.225L440.624 231.445L376.659 30.7617C369.823 10.2539 359.813 0 345.653 0C331.249 0 321.239 10.2539 314.647 30.7617L250.438 231.445L40.2329 230.225C18.5044 229.98 5.80911 236.816 1.41458 250.244C-3.2241 263.916 3.61184 276.855 20.9458 289.307L192.088 412.354L125.438 612.061C118.602 632.568 121.288 646.729 132.518 655.273ZM345.653 478.027V64.209C346.629 64.209 347.118 64.9414 347.606 67.1387L404.979 255.859C408.641 267.334 416.209 272.217 427.928 271.973L625.438 269.287C627.391 269.287 628.368 269.287 628.612 270.264C629.1 271.24 628.368 271.973 626.659 272.949L465.038 385.986C454.784 392.822 452.586 401.855 456.493 413.086L520.458 599.854C520.946 601.807 521.434 602.295 520.702 603.027C519.969 604.004 518.993 603.271 517.284 602.295L360.057 483.154C355.418 479.736 350.536 477.783 345.653 478.027Z" fill="#FFCC00"/>
</g>
<defs>
<clipPath id="clip0_248_25">
<rect width="691.306" height="704.346" fill="white"/>
</clipPath>
</defs>
</svg>
