<svg width="958" height="782" viewBox="0 0 958 782" fill="none" xmlns="http://www.w3.org/2000/svg">
<g clip-path="url(#clip0_245_66)">
<path d="M725.967 161.377H491.211C385.986 161.377 325.195 223.877 325.195 327.148V507.812C325.195 539.767 331.016 567.771 342.202 591.185L262.939 661.133C247.07 675.049 237.793 682.129 224.365 682.129C205.811 682.129 194.824 668.945 194.824 647.949V563.965H176.514C88.1348 563.965 38.8184 513.916 38.8184 426.514V177.49C38.8184 90.0879 88.1348 39.7949 176.514 39.7949H588.867C671.876 39.7949 720.187 84.1321 725.967 161.377Z" fill="#007AFF"/>
<path d="M918.701 327.148V507.324C918.701 589.355 874.756 634.033 791.748 634.033H780.762V709.473C780.762 729.736 770.264 742.92 751.709 742.92C739.014 742.92 729.736 735.84 714.111 722.168L611.084 634.033H491.211C407.959 634.033 364.014 589.6 364.014 507.812V327.148C364.014 245.117 407.959 200.195 491.211 200.195H791.748C874.756 200.195 918.701 245.117 918.701 327.148ZM613.525 509.521C613.525 524.17 626.221 536.377 641.113 536.377C656.006 536.377 668.701 524.414 668.701 509.521C668.701 494.629 656.25 482.91 641.113 482.91C626.221 482.91 613.525 494.873 613.525 509.521ZM618.896 322.754L622.07 430.908C622.559 443.604 629.15 450.928 641.357 450.928C653.076 450.928 659.668 443.848 660.156 430.908L663.574 322.998C664.062 309.326 654.297 299.805 641.113 299.805C627.93 299.805 618.408 309.082 618.896 322.754Z" fill="#28CD41"/>
</g>
<defs>
<clipPath id="clip0_245_66">
<rect width="957.52" height="781.982" fill="white"/>
</clipPath>
</defs>
</svg>
