<svg width="750" height="750" viewBox="0 0 750 750" fill="none" xmlns="http://www.w3.org/2000/svg">
<circle cx="375" cy="375" r="375" fill="white"/>
<path d="M375 683C544.551 683 682 545.551 682 376C682 206.449 544.551 69 375 69C205.449 69 68 206.449 68 376C68 545.551 205.449 683 375 683Z" fill="url(#paint0_linear_179_58)"/>
<path fill-rule="evenodd" clip-rule="evenodd" d="M206.802 372.678C296.269 333.823 355.828 308.006 385.736 295.48C470.858 259.949 488.751 253.814 500.254 253.559C502.81 253.559 508.434 254.07 512.268 257.137C515.335 259.693 516.102 263.017 516.614 265.573C517.125 268.129 517.636 273.497 517.125 277.587C512.524 326.155 492.585 443.996 482.36 498.187C478.015 521.193 469.579 528.862 461.4 529.629C443.506 531.162 429.958 517.87 412.832 506.623C385.736 488.985 370.654 477.993 344.325 460.611C313.907 440.673 333.589 429.681 350.972 411.788C355.573 407.186 434.048 335.613 435.582 329.222C435.838 328.455 435.838 325.388 434.048 323.854C432.259 322.32 429.703 322.832 427.658 323.343C424.846 323.854 381.902 352.484 298.314 408.976C286.044 417.411 275.052 421.501 265.083 421.246C254.091 420.99 233.131 415.111 217.282 409.998C198.111 403.863 182.773 400.54 184.052 389.804C184.818 384.181 192.487 378.557 206.802 372.678Z" fill="white"/>
<defs>
<linearGradient id="paint0_linear_179_58" x1="374.744" y1="69" x2="374.744" y2="678.143" gradientUnits="userSpaceOnUse">
<stop stop-color="#2AABEE"/>
<stop offset="1" stop-color="#229ED9"/>
</linearGradient>
</defs>
</svg>
