<svg width="881" height="504" viewBox="0 0 881 504" fill="none" xmlns="http://www.w3.org/2000/svg">
<g clip-path="url(#clip0_207_57)">
<path d="M440.186 389.404C500.244 389.404 561.523 489.746 679.688 489.746C794.189 489.746 880.371 385.742 880.371 248.779C880.371 24.6582 683.594 0 440.186 0C196.777 0 0 24.9023 0 248.779C0 385.742 86.1816 489.746 200.684 489.746C318.848 489.746 380.127 389.404 440.186 389.404ZM440.186 346.191C354.248 346.191 309.57 446.533 200.684 446.533C106.201 446.533 43.2129 369.629 43.2129 248.779C43.2129 62.5 201.416 43.2129 440.186 43.2129C678.955 43.2129 837.158 62.2559 837.158 248.779C837.158 369.629 774.414 446.533 679.688 446.533C570.801 446.533 526.123 346.191 440.186 346.191Z" fill="black" fill-opacity="0.85"/>
<path d="M440.186 346.191C354.248 346.191 309.57 446.533 200.684 446.533C106.201 446.533 43.2129 369.629 43.2129 248.779C43.2129 62.5 201.416 43.2129 440.186 43.2129C678.955 43.2129 837.158 62.2559 837.158 248.779C837.158 369.629 774.414 446.533 679.688 446.533C570.801 446.533 526.123 346.191 440.186 346.191Z" fill="black" fill-opacity="0.2125"/>
</g>
<defs>
<clipPath id="clip0_207_57">
<rect width="880.371" height="503.662" fill="white"/>
</clipPath>
</defs>
</svg>
