<svg width="750" height="750" viewBox="0 0 750 750" fill="none" xmlns="http://www.w3.org/2000/svg">
<circle cx="375" cy="375" r="375" fill="white"/>
<path d="M68 362.72C68 223.787 68 154.321 111.161 111.161C154.321 68 223.787 68 362.72 68H387.28C526.213 68 595.678 68 638.84 111.161C682 154.321 682 223.787 682 362.72V387.28C682 526.213 682 595.678 638.84 638.84C595.678 682 526.213 682 387.28 682H362.72C223.787 682 154.321 682 111.161 638.84C68 595.678 68 526.213 68 387.28V362.72Z" fill="#0077FF"/>
<path d="M394.854 510C254.431 510 174.337 413.904 171 254H241.34C243.65 371.365 295.505 421.079 336.58 431.329V254H402.815V355.221C443.375 350.865 485.985 304.739 500.361 254H566.595C555.556 316.527 509.347 362.653 476.488 381.616C509.347 396.991 561.976 437.223 582 510H509.091C493.431 461.311 454.414 423.642 402.815 418.517V510H394.854Z" fill="white"/>
</svg>
