<svg width="750" height="750" viewBox="0 0 750 750" fill="none" xmlns="http://www.w3.org/2000/svg">
<circle cx="375" cy="375" r="375" fill="white"/>
<path d="M668.823 228.31C661.805 202.18 641.142 181.51 614.63 174.49C566.676 162.01 374.858 162.01 374.858 162.01C374.858 162.01 186.549 161.23 138.595 173.71C112.083 180.73 86.7416 202.18 79.7239 228.31C66.8581 275.89 68.0277 374.56 68.0277 374.56C68.0277 374.56 66.8581 473.23 79.7239 520.81C86.7416 546.94 112.473 568.39 138.595 575.41C186.549 588.28 374.858 587.11 374.858 587.11C374.858 587.11 563.167 587.89 611.121 575.41C637.633 568.39 662.195 546.94 669.213 520.81C682.078 473.62 682.078 374.56 682.078 374.56C682.078 374.56 681.688 275.89 668.823 228.31Z" fill="#FF0000"/>
<path d="M315.987 468.94L469.207 374.56L315.987 280.18V468.94Z" fill="white"/>
</svg>
